<svg width="1430" height="868" viewBox="0 0 1430 868" fill="none" xmlns="http://www.w3.org/2000/svg">
<g filter="url(#filter0_f_9408_47)">
<path d="M228.074 195.759C238.711 179.317 260.686 174.649 277.087 185.349L390.873 259.577C424.289 281.376 444.752 318.3 445.523 358.191C445.831 374.148 458.856 386.923 474.816 386.923H522.068C562.569 386.923 596.776 358.535 626.961 331.531C651.018 310.009 682.781 296.923 717.6 296.923C766.099 296.923 808.669 322.31 832.745 360.52C842.483 375.973 858.206 387.923 876.471 387.923H996.816C1004.43 387.923 1010.6 381.752 1010.6 374.139V372.609C1010.6 372.498 1010.59 372.387 1010.56 372.28L1010.28 371.169C1010.25 371.054 1010.32 370.938 1010.44 370.909C1010.53 370.885 1010.6 370.8 1010.6 370.701V301.556C1010.6 291.625 1015.72 282.396 1024.15 277.138L1192.83 201.923L1220.51 244.713L1085.93 301.312C1076.64 305.221 1070.45 314.157 1070.05 324.233C1069.4 340.751 1084.14 353.664 1100.43 350.844L1239.4 326.78L1249.48 367.084L1141.97 398.427C1108.54 408.174 1108.3 455.456 1141.64 465.531L1247.6 497.556L1237.52 537.861L1099.13 514.02C1083.55 511.336 1069.46 523.69 1070.08 539.489C1070.46 549.131 1076.38 557.683 1085.28 561.424L1220.51 618.299L1192.83 661.09L1024.15 585.874C1015.72 580.618 1010.6 571.389 1010.6 561.458V494.408C1010.6 494.31 1010.53 494.224 1010.44 494.2C1010.32 494.172 1010.25 494.056 1010.28 493.941L1010.56 492.829C1010.59 492.722 1010.6 492.611 1010.6 492.5V491.271C1010.6 485.004 1005.52 479.923 999.252 479.923H875.245C857.228 479.923 841.659 491.563 831.873 506.691C807.649 544.14 765.519 568.923 717.6 568.923C682.781 568.923 651.018 555.838 626.961 534.316C596.776 507.312 562.569 478.923 522.068 478.923H471.412C457.321 478.923 445.822 490.202 445.549 504.29C444.762 545.035 423.859 582.749 389.725 605.012L272.085 681.739C255.683 692.437 233.709 687.769 223.072 671.327C212.463 654.928 217.157 633.033 233.556 622.424L316.608 568.694C341.065 552.871 355.665 525.582 355.255 496.456C355.118 486.733 347.198 478.923 337.475 478.923H225.6C200.195 478.923 179.6 458.328 179.6 432.923C179.6 407.518 200.195 386.923 225.6 386.923H334.924C346.047 386.923 355.107 377.99 355.263 366.869C355.668 338.067 341.231 311.082 317.046 295.436L238.557 244.66C222.159 234.051 217.466 212.158 228.074 195.759Z" fill="#FF0000"/>
</g>
<defs>
<filter id="filter0_f_9408_47" x="9.15527e-05" y="-3.05176e-05" width="1429.08" height="867.087" filterUnits="userSpaceOnUse" color-interpolation-filters="sRGB">
<feFlood flood-opacity="0" result="BackgroundImageFix"/>
<feBlend mode="normal" in="SourceGraphic" in2="BackgroundImageFix" result="shape"/>
<feGaussianBlur stdDeviation="89.8" result="effect1_foregroundBlur_9408_47"/>
</filter>
</defs>
</svg>
